<?xml version="1.0" encoding="utf-8"?>
<!-- Generator: Adobe Illustrator 19.2.1, SVG Export Plug-In . SVG Version: 6.00 Build 0)  -->
<svg version="1.1" id="Isolation_Mode" xmlns="http://www.w3.org/2000/svg" xmlns:xlink="http://www.w3.org/1999/xlink" x="0px"
	 y="0px" viewBox="0 0 35 10" style="enable-background:new 0 0 35 10;" xml:space="preserve">
<style type="text/css">
	.st0{fill:#F5891F;}
	.st1{fill:#FFFFFF;}
</style>
<g>
	<g>
		<g>
			<path class="st0" d="M13.711,2.586h-0.879V2.488c0-0.293-0.098-0.391-0.195-0.489c-0.098-0.098-0.293-0.098-0.684-0.098
				c-0.391,0-0.684,0-0.879,0.098c-0.098,0.098-0.195,0.195-0.195,0.489s0.098,0.489,0.195,0.586
				c0.098,0.098,0.489,0.098,1.075,0.098c0.684,0,1.173,0.098,1.368,0.293c0.195,0.195,0.293,0.489,0.293,0.977
				c0,0.586-0.098,1.075-0.391,1.173c-0.195,0.293-0.782,0.391-1.563,0.391c-0.782,0-1.27-0.098-1.466-0.293
				c-0.195-0.195-0.391-0.586-0.391-1.075V4.443h0.879V4.54c0,0.293,0.098,0.489,0.195,0.586c0.098,0.098,0.391,0.098,0.977,0.098
				c0.391,0,0.684,0,0.782-0.098c0.098-0.098,0.195-0.293,0.195-0.586c0-0.195,0-0.391-0.098-0.489c-0.195,0-0.391,0-0.684-0.098
				h-0.489c-0.782,0-1.27-0.195-1.466-0.293c-0.195-0.195-0.293-0.489-0.293-1.075s0.098-0.879,0.391-1.075
				c0.293-0.195,0.782-0.293,1.466-0.293c0.684,0,1.173,0.098,1.466,0.293C13.613,1.706,13.711,2,13.711,2.488L13.711,2.586z"/>
			<path class="st0" d="M16.447,4.931h0.782v0.098c0,0.684-0.489,0.977-1.466,0.977c-0.684,0-1.075-0.098-1.27-0.293
				c-0.195-0.195-0.293-0.684-0.293-1.466c0-0.684,0.098-1.075,0.293-1.27c0.195-0.195,0.586-0.293,1.27-0.293
				c0.586,0,0.977,0.098,1.173,0.293c0.195,0.195,0.293,0.684,0.293,1.27v0.195h-2.247c0,0.098,0,0.098,0,0.098
				c0,0.293,0.098,0.586,0.195,0.684c0.098,0.098,0.293,0.195,0.586,0.195c0.293,0,0.489,0,0.586-0.098
				C16.447,5.224,16.447,5.127,16.447,4.931z M16.447,3.954V3.856c0-0.293,0-0.391-0.098-0.489C16.251,3.27,16.056,3.27,15.763,3.27
				c-0.293,0-0.489,0-0.586,0.098c-0.098,0.098-0.098,0.293-0.098,0.586H16.447z"/>
			<path class="st0" d="M20.648,2.684l-0.977,3.322h-1.27l-0.977-3.322h0.879l0.391,1.563c0.098,0.195,0.098,0.391,0.195,0.586
				l0.098,0.293l0.098,0.293l0,0l0.098-0.293l0.098-0.293c0.098-0.195,0.098-0.391,0.195-0.586l0.391-1.563H20.648z"/>
			<path class="st0" d="M22.896,1.218c0.879,0,1.368,0.098,1.661,0.391s0.391,0.879,0.391,1.954s-0.098,1.759-0.391,2.052
				c-0.293,0.293-0.879,0.391-1.759,0.391c-0.879,0-1.466-0.098-1.661-0.391c-0.293-0.293-0.391-0.879-0.391-1.857
				c0-1.173,0.098-1.857,0.391-2.15C21.332,1.316,21.919,1.218,22.896,1.218z M22.798,2c-0.586,0-0.977,0.098-1.075,0.195
				c-0.098,0.195-0.195,0.684-0.195,1.563c0,0.684,0.098,1.075,0.195,1.27c0.098,0.098,0.489,0.195,1.075,0.195
				s0.879-0.098,0.977-0.195c0.098-0.195,0.195-0.586,0.195-1.466c0-0.782-0.098-1.27-0.195-1.368C23.775,2,23.385,2,22.798,2z"/>
			<path class="st0" d="M25.437,2.684h0.782V3.27l0,0c0.195-0.391,0.489-0.586,1.075-0.586c0.782,0,1.173,0.391,1.173,1.075v2.247
				h-0.782V4.052V3.856V3.661c0-0.293-0.195-0.391-0.586-0.391c-0.586,0-0.879,0.195-0.879,0.782v1.954h-0.782V2.684z"/>
			<path class="st0" d="M31.3,4.931h0.782v0.098c0,0.684-0.489,0.977-1.466,0.977c-0.684,0-1.075-0.098-1.27-0.293
				c-0.195-0.293-0.293-0.684-0.293-1.466c0-0.684,0.098-1.075,0.293-1.27c0.195-0.195,0.586-0.293,1.27-0.293
				c0.586,0,0.977,0.098,1.173,0.293c0.195,0.195,0.293,0.586,0.293,1.27v0.195h-2.247c0,0.098,0,0.098,0,0.098
				c0,0.293,0.098,0.586,0.195,0.684c0.098,0.098,0.293,0.195,0.586,0.195s0.489,0,0.586-0.098C31.202,5.224,31.3,5.127,31.3,4.931z
				 M31.3,3.954V3.856c0-0.293,0-0.391-0.098-0.489C31.104,3.27,30.909,3.27,30.616,3.27c-0.293,0-0.489,0-0.586,0.098
				c-0.098,0.098-0.098,0.293-0.098,0.586H31.3z"/>
		</g>
	</g>
	<rect x="6.87" y="6.69" class="st0" width="2.15" height="2.15"/>
	<rect x="6.87" y="3.954" class="st1" width="2.15" height="2.15"/>
	<rect x="6.87" y="1.12" class="st1" width="2.15" height="2.15"/>
	<rect x="4.134" y="6.69" class="st1" width="2.15" height="2.15"/>
	<rect x="4.134" y="3.954" class="st1" width="2.15" height="2.15"/>
	<rect x="1.3" y="6.69" class="st1" width="2.247" height="2.15"/>
</g>
<g>
	<path class="st1" d="M11.675,7.867c0,0.316-0.087,0.56-0.261,0.731c-0.174,0.171-0.419,0.256-0.734,0.256h-0.613V6.96h0.655
		c0.304,0,0.538,0.078,0.704,0.233C11.592,7.349,11.675,7.573,11.675,7.867z M11.144,7.885c0-0.174-0.034-0.302-0.103-0.386
		c-0.068-0.084-0.173-0.125-0.313-0.125h-0.149v1.061h0.114c0.155,0,0.269-0.045,0.342-0.135
		C11.108,8.208,11.144,8.071,11.144,7.885z"/>
	<path class="st1" d="M13.462,8.854l-0.093-0.355h-0.615l-0.096,0.355h-0.562l0.618-1.902h0.682l0.625,1.902H13.462z M13.263,8.079
		l-0.082-0.311C13.162,7.699,13.139,7.61,13.112,7.5c-0.027-0.11-0.045-0.188-0.054-0.235c-0.007,0.044-0.023,0.116-0.046,0.218
		c-0.023,0.101-0.074,0.3-0.152,0.597H13.263z"/>
	<path class="st1" d="M15.348,8.854h-0.511V7.379h-0.463V6.96h1.435v0.419h-0.461V8.854z"/>
	<path class="st1" d="M17.528,8.854l-0.093-0.355H16.82l-0.096,0.355h-0.562l0.618-1.902h0.682l0.625,1.902H17.528z M17.329,8.079
		l-0.082-0.311C17.229,7.699,17.205,7.61,17.178,7.5c-0.027-0.11-0.045-0.188-0.054-0.235c-0.007,0.044-0.023,0.116-0.046,0.218
		c-0.023,0.101-0.074,0.3-0.152,0.597H17.329z"/>
	<path class="st1" d="M19.555,8.854V6.96h0.514v1.894H19.555z"/>
	<path class="st1" d="M22.569,8.854h-0.671L21.206,7.52h-0.011C21.211,7.73,21.219,7.89,21.219,8v0.853h-0.453V6.96h0.668
		l0.689,1.316h0.008c-0.012-0.191-0.018-0.344-0.018-0.46V6.96h0.456V8.854z"/>
	<path class="st1" d="M24.503,8.279c0,0.117-0.03,0.222-0.089,0.313c-0.06,0.091-0.146,0.162-0.258,0.212
		c-0.112,0.051-0.244,0.076-0.395,0.076c-0.126,0-0.232-0.009-0.318-0.027c-0.085-0.018-0.174-0.048-0.267-0.093V8.305
		c0.098,0.05,0.199,0.089,0.305,0.117c0.105,0.028,0.202,0.042,0.29,0.042c0.076,0,0.131-0.013,0.167-0.039
		c0.036-0.026,0.053-0.06,0.053-0.102c0-0.026-0.007-0.048-0.021-0.068c-0.014-0.019-0.037-0.039-0.069-0.059
		s-0.115-0.06-0.252-0.122c-0.123-0.056-0.216-0.111-0.278-0.163s-0.108-0.113-0.137-0.181c-0.03-0.068-0.045-0.149-0.045-0.242
		c0-0.175,0.064-0.311,0.19-0.408c0.127-0.098,0.302-0.146,0.523-0.146c0.196,0,0.396,0.045,0.6,0.136l-0.157,0.395
		c-0.177-0.081-0.33-0.121-0.459-0.121c-0.066,0-0.115,0.011-0.145,0.035c-0.03,0.023-0.045,0.052-0.045,0.087
		c0,0.037,0.019,0.071,0.058,0.1c0.038,0.029,0.142,0.083,0.313,0.161c0.163,0.073,0.276,0.152,0.34,0.236
		C24.471,8.045,24.503,8.151,24.503,8.279z"/>
	<path class="st1" d="M25.082,8.854V6.96h0.514v1.894H25.082z"/>
	<path class="st1" d="M27.052,7.745h0.817v1.021c-0.222,0.076-0.466,0.114-0.732,0.114c-0.292,0-0.517-0.085-0.677-0.254
		c-0.16-0.169-0.239-0.411-0.239-0.724c0-0.306,0.087-0.544,0.262-0.714c0.174-0.17,0.419-0.255,0.733-0.255
		c0.119,0,0.232,0.011,0.338,0.033c0.106,0.023,0.198,0.051,0.276,0.086l-0.162,0.401c-0.137-0.067-0.286-0.101-0.45-0.101
		c-0.15,0-0.265,0.048-0.346,0.145c-0.082,0.097-0.123,0.236-0.123,0.416c0,0.177,0.037,0.312,0.111,0.405
		c0.074,0.093,0.18,0.139,0.319,0.139c0.076,0,0.146-0.007,0.21-0.022V8.14h-0.338V7.745z"/>
	<path class="st1" d="M30.165,8.854h-0.514V8.082h-0.595v0.772h-0.514V6.96h0.514v0.702h0.595V6.96h0.514V8.854z"/>
	<path class="st1" d="M31.697,8.854h-0.511V7.379h-0.463V6.96h1.435v0.419h-0.461V8.854z"/>
</g>
</svg>
